<svg width="640" height="640" viewBox="0 0 640 640" fill="none" xmlns="http://www.w3.org/2000/svg">
  <rect width="640" height="640" rx="48" fill="#F8FAFC"/>
  <rect x="52" y="52" width="536" height="536" rx="268" fill="url(#bg)"/>
  <circle cx="320" cy="242" r="112" fill="#EBC2A7"/>
  <path d="M240 390C240 349.131 273.131 316 314 316H330C370.869 316 404 349.131 404 390V423H240V390Z" fill="#EBC2A7"/>
  <path d="M162 590C178.67 468.389 232.336 406 323 406C413.664 406 467.33 468.389 484 590H162Z" fill="#1D4ED8"/>
  <path d="M239 590C252.26 496.162 288.038 448 346 448C403.962 448 439.74 496.162 453 590H239Z" fill="#2563EB"/>
  <path d="M222 246C222 171.994 281.994 112 356 112C400.597 112 442.191 134.333 467.084 171.53C444.959 163.043 421.175 158.695 397.261 158.716C328.716 158.776 263.658 194.601 222 257V246Z" fill="#3F2A22"/>
  <path d="M216 256C227.704 195.127 286.884 151.468 347.827 159.172L388.271 164.288C438.146 170.597 478.617 207.463 489 256L449.819 239.449C409.718 222.517 364.886 219.91 323.116 232.059L216 263.214V256Z" fill="#4B2E25"/>
  <circle cx="279" cy="254" r="11" fill="#111827"/>
  <circle cx="362" cy="254" r="11" fill="#111827"/>
  <path d="M287 310C299.578 320.95 315.682 327 332.345 327C349.008 327 365.112 320.95 377.69 310" stroke="#92400E" stroke-width="10" stroke-linecap="round"/>
  <path d="M241 188C283.827 152.826 343.825 145.455 393.89 169.164C425.884 184.316 451.442 210.591 466 242" stroke="#111827" stroke-width="14" stroke-linecap="round"/>
  <defs>
    <linearGradient id="bg" x1="97" y1="100" x2="538" y2="575" gradientUnits="userSpaceOnUse">
      <stop stop-color="#DBEAFE"/>
      <stop offset="1" stop-color="#E0F2FE"/>
    </linearGradient>
  </defs>
</svg>
