<svg width="640" height="640" viewBox="0 0 640 640" fill="none" xmlns="http://www.w3.org/2000/svg">
  <rect width="640" height="640" rx="48" fill="#F8FAFC"/>
  <rect x="52" y="52" width="536" height="536" rx="268" fill="url(#bg)"/>
  <circle cx="320" cy="244" r="112" fill="#B97A55"/>
  <path d="M238 390C238 347.474 272.474 313 315 313H327C369.526 313 404 347.474 404 390V425H238V390Z" fill="#B97A55"/>
  <path d="M156 590C171.913 469.93 228.913 406 321 406C413.087 406 470.087 469.93 486 590H156Z" fill="#1E3A8A"/>
  <path d="M238 590C250.416 495.373 286.75 448 345 448C403.25 448 439.584 495.373 452 590H238Z" fill="#2563EB"/>
  <path d="M217 245C217 172.098 276.098 113 349 113C406.847 113 456.319 150.119 473.914 201.836C446.188 192.11 416.697 188.281 387.373 190.578C321.99 195.702 259.899 226.85 217 278V245Z" fill="#111827"/>
  <path d="M216 253C232.403 189.944 289.292 146 354.446 146H369.532C420.512 146 465.626 173.252 488 215.2C449.756 206.72 409.908 206.618 371.621 214.9C322.75 225.471 277.187 247.776 238.932 279.693L216 253Z" fill="#1F2937"/>
  <path d="M247 182C278.911 154.785 321.084 141.902 362.685 146.489C404.286 151.076 442.463 172.732 468 206" stroke="#374151" stroke-width="14" stroke-linecap="round"/>
  <circle cx="280" cy="255" r="11" fill="#111827"/>
  <circle cx="362" cy="255" r="11" fill="#111827"/>
  <path d="M302 296L319 304L338 296" stroke="#8B5E3C" stroke-width="8" stroke-linecap="round" stroke-linejoin="round"/>
  <path d="M286 313C298.407 321.622 313.152 326.2 328.258 326.2C343.364 326.2 358.109 321.622 370.516 313" stroke="#7C2D12" stroke-width="10" stroke-linecap="round"/>
  <path d="M251 236C258.207 226.58 269.407 221 281.269 221C293.131 221 304.331 226.58 311.538 236" stroke="#111827" stroke-width="8" stroke-linecap="round"/>
  <path d="M333 236C340.207 226.58 351.407 221 363.269 221C375.131 221 386.331 226.58 393.538 236" stroke="#111827" stroke-width="8" stroke-linecap="round"/>
  <path d="M293 342C306.549 349.595 322.808 353.108 338.288 351.974C353.769 350.84 369.355 345.111 381 335" stroke="#111827" stroke-width="8" stroke-linecap="round"/>
  <path d="M294 340C302.5 363.5 332 367.5 348 356.5C357.5 349.972 364.5 337 365 323C359.5 328.5 350.5 333 340 334.5C322.5 337 305 334 294 340Z" fill="#111827"/>
  <defs>
    <linearGradient id="bg" x1="98" y1="96" x2="542" y2="580" gradientUnits="userSpaceOnUse">
      <stop stop-color="#DBEAFE"/>
      <stop offset="1" stop-color="#CFFAFE"/>
    </linearGradient>
  </defs>
</svg>
