<svg width="640" height="640" viewBox="0 0 640 640" fill="none" xmlns="http://www.w3.org/2000/svg">
  <rect width="640" height="640" rx="48" fill="#F3F4F6"/>
  <rect x="52" y="52" width="536" height="536" rx="268" fill="url(#bg)"/>
  <circle cx="320" cy="242" r="112" fill="#F8D9C8"/>
  <path d="M214 240C214 171.517 269.517 116 338 116H354C415.856 116 466 166.144 466 228V241C437.655 218.508 398.63 206.429 361.274 209.376C325.85 212.171 291.951 228.811 261.617 255.895L214 240Z" fill="#1F2937"/>
  <path d="M245 390C245 347.474 279.474 313 322 313H325C367.526 313 402 347.474 402 390V419H245V390Z" fill="#F8D9C8"/>
  <path d="M174 590C184.626 469.76 236.172 406 329 406C421.828 406 473.374 469.76 484 590H174Z" fill="#0F766E"/>
  <path d="M242 590C253.771 495.296 291.437 448 355 448C418.563 448 456.229 495.296 468 590H242Z" fill="#14B8A6"/>
  <circle cx="280" cy="253" r="11" fill="#111827"/>
  <circle cx="364" cy="253" r="11" fill="#111827"/>
  <path d="M286 309C299.72 323.214 321.497 331 343.5 331C365.503 331 387.28 323.214 401 309" stroke="#B45309" stroke-width="10" stroke-linecap="round"/>
  <path d="M236 198C254.974 159.621 294.323 136 337.137 136H350.149C378.915 136 406.414 146.952 426.982 166.611C447.55 186.27 459.732 213.244 461 241L425.185 228.394C389.335 215.771 349.968 216.197 314.399 229.593L236 259V198Z" fill="#111827"/>
  <path d="M258 178C282.867 153.723 314.782 140.114 347.918 139.499C381.054 138.884 413.439 151.31 439.192 174.65" stroke="#374151" stroke-width="16" stroke-linecap="round"/>
  <defs>
    <linearGradient id="bg" x1="96" y1="88" x2="545" y2="572" gradientUnits="userSpaceOnUse">
      <stop stop-color="#CCFBF1"/>
      <stop offset="1" stop-color="#DDD6FE"/>
    </linearGradient>
  </defs>
</svg>
